<svg width="44" height="94" viewBox="0 0 44 94" fill="none" xmlns="http://www.w3.org/2000/svg">
<path d="M43.9091 0.909088V94H21.4545V21.9091H20.9091L0.0909095 34.6364V15.1818L23.0455 0.909088H43.9091Z" fill="black"/>
<path d="M43.9091 0.909088H44.9091V-0.0909119H43.9091V0.909088ZM43.9091 94V95H44.9091V94H43.9091ZM21.4545 94H20.4545V95H21.4545V94ZM21.4545 21.9091H22.4545V20.9091H21.4545V21.9091ZM20.9091 21.9091V20.9091H20.6276L20.3875 21.0559L20.9091 21.9091ZM0.0909095 34.6364H-0.909091V36.4198L0.61251 35.4895L0.0909095 34.6364ZM0.0909095 15.1818L-0.437123 14.3326L-0.909091 14.6261V15.1818H0.0909095ZM23.0455 0.909088V-0.0909119H22.7599L22.5174 0.059864L23.0455 0.909088ZM42.9091 0.909088V94H44.9091V0.909088H42.9091ZM43.9091 93H21.4545V95H43.9091V93ZM22.4545 94V21.9091H20.4545V94H22.4545ZM21.4545 20.9091H20.9091V22.9091H21.4545V20.9091ZM20.3875 21.0559L-0.430691 33.7832L0.61251 35.4895L21.4307 22.7623L20.3875 21.0559ZM1.09091 34.6364V15.1818H-0.909091V34.6364H1.09091ZM0.618942 16.031L23.5735 1.75831L22.5174 0.059864L-0.437123 14.3326L0.618942 16.031ZM23.0455 1.90909H43.9091V-0.0909119H23.0455V1.90909Z" fill="#8A8484"/>
</svg>
