<svg width="80" height="97" viewBox="0 0 80 97" fill="none" xmlns="http://www.w3.org/2000/svg">
<path d="M42.2727 96.2727C35.1818 96.2727 28.8939 95.0606 23.4091 92.6364C17.9545 90.1818 13.6515 86.803 10.5 82.5C7.34848 78.197 5.74242 73.2424 5.68182 67.6364H28.3182C28.4091 69.6667 29.0606 71.4697 30.2727 73.0455C31.4849 74.5909 33.1364 75.803 35.2273 76.6818C37.3182 77.5606 39.697 78 42.3636 78C45.0303 78 47.3788 77.5303 49.4091 76.5909C51.4697 75.6212 53.0758 74.303 54.2273 72.6364C55.3788 70.9394 55.9394 69 55.9091 66.8182C55.9394 64.6364 55.3182 62.697 54.0455 61C52.7727 59.303 50.9697 57.9848 48.6364 57.0455C46.3333 56.1061 43.6061 55.6364 40.4545 55.6364H31.4091V39.6364H40.4545C43.2121 39.6364 45.6364 39.1818 47.7273 38.2727C49.8485 37.3636 51.5 36.0909 52.6818 34.4545C53.8636 32.7879 54.4394 30.8788 54.4091 28.7273C54.4394 26.6364 53.9394 24.803 52.9091 23.2273C51.9091 21.6212 50.5 20.3788 48.6818 19.5C46.8939 18.6212 44.8182 18.1818 42.4545 18.1818C39.9697 18.1818 37.7121 18.6212 35.6818 19.5C33.6818 20.3788 32.0909 21.6212 30.9091 23.2273C29.7273 24.8333 29.1061 26.697 29.0455 28.8182H7.54545C7.60606 23.2727 9.15152 18.3939 12.1818 14.1818C15.2121 9.93939 19.3333 6.62121 24.5455 4.22727C29.7879 1.83333 35.7576 0.63636 42.4545 0.63636C49.1212 0.63636 54.9849 1.80303 60.0455 4.13636C65.1061 6.46969 69.0455 9.65151 71.8636 13.6818C74.6818 17.6818 76.0909 22.2121 76.0909 27.2727C76.1212 32.5151 74.4091 36.8333 70.9545 40.2273C67.5303 43.6212 63.1212 45.7121 57.7273 46.5V47.2273C64.9394 48.0758 70.3788 50.4091 74.0455 54.2273C77.7424 58.0455 79.5758 62.8182 79.5455 68.5455C79.5455 73.9394 77.9545 78.7273 74.7727 82.9091C71.6212 87.0606 67.2273 90.3333 61.5909 92.7273C55.9849 95.0909 49.5455 96.2727 42.2727 96.2727Z" fill="black"/>
<path d="M23.4091 92.6364L22.9987 93.5483L23.0048 93.551L23.4091 92.6364ZM10.5 82.5L9.69323 83.0909L9.69323 83.0909L10.5 82.5ZM5.68182 67.6364V66.6364H4.67095L4.68188 67.6472L5.68182 67.6364ZM28.3182 67.6364L29.3172 67.5916L29.2744 66.6364H28.3182V67.6364ZM30.2727 73.0455L29.4801 73.6552L29.4859 73.6626L30.2727 73.0455ZM35.2273 76.6818L34.8398 77.6037L34.8398 77.6037L35.2273 76.6818ZM49.4091 76.5909L49.829 77.4985L49.8349 77.4957L49.4091 76.5909ZM54.2273 72.6364L55.05 73.2048L55.0548 73.1979L54.2273 72.6364ZM55.9091 66.8182L54.9092 66.8043L54.909 66.8182L54.9092 66.8321L55.9091 66.8182ZM54.0455 61L53.2455 61.6L53.2455 61.6L54.0455 61ZM48.6364 57.0455L48.2587 57.9714L48.2629 57.9731L48.6364 57.0455ZM31.4091 55.6364H30.4091V56.6364H31.4091V55.6364ZM31.4091 39.6364V38.6364H30.4091V39.6364H31.4091ZM47.7273 38.2727L47.3334 37.3536L47.3285 37.3557L47.7273 38.2727ZM52.6818 34.4545L53.4925 35.0401L53.4976 35.033L52.6818 34.4545ZM54.4091 28.7273L53.4092 28.7128L53.409 28.7271L53.4092 28.7414L54.4091 28.7273ZM52.9091 23.2273L52.0602 23.7558L52.0661 23.7652L52.0721 23.7745L52.9091 23.2273ZM48.6818 19.5L48.2407 20.3975L48.2467 20.4003L48.6818 19.5ZM35.6818 19.5L35.2846 18.5823L35.2795 18.5845L35.6818 19.5ZM30.9091 23.2273L31.7145 23.82L31.7145 23.82L30.9091 23.2273ZM29.0455 28.8182V29.8182H30.0173L30.045 28.8467L29.0455 28.8182ZM7.54545 28.8182L6.54551 28.8072L6.53447 29.8182H7.54545V28.8182ZM12.1818 14.1818L12.9936 14.7658L12.9956 14.7631L12.1818 14.1818ZM24.5455 4.22727L24.1301 3.31763L24.1281 3.31854L24.5455 4.22727ZM60.0455 4.13636L59.6267 5.04448L59.6267 5.04448L60.0455 4.13636ZM71.8636 13.6818L71.0441 14.2549L71.0462 14.2578L71.8636 13.6818ZM76.0909 27.2727L75.0909 27.2727L75.0909 27.2785L76.0909 27.2727ZM70.9545 40.2273L70.2537 39.5139L70.2506 39.517L70.9545 40.2273ZM57.7273 46.5L57.5827 45.5105L56.7273 45.6355V46.5H57.7273ZM57.7273 47.2273H56.7273V48.1165L57.6104 48.2204L57.7273 47.2273ZM74.0455 54.2273L73.3242 54.9199L73.327 54.9229L74.0455 54.2273ZM79.5455 68.5455L78.5455 68.5402V68.5455H79.5455ZM74.7727 82.9091L73.9769 82.3036L73.9762 82.3045L74.7727 82.9091ZM61.5909 92.7273L61.9794 93.6487L61.9818 93.6477L61.5909 92.7273ZM42.2727 95.2727C35.296 95.2727 29.1498 94.0804 23.8134 91.7217L23.0048 93.551C28.6381 96.0409 35.0676 97.2727 42.2727 97.2727V95.2727ZM23.8195 91.7244C18.503 89.3321 14.3442 86.0564 11.3068 81.9091L9.69323 83.0909C12.9589 87.5497 17.406 91.0316 22.9987 93.5483L23.8195 91.7244ZM11.3068 81.9091C8.28516 77.7835 6.74023 73.0342 6.68176 67.6256L4.68188 67.6472C4.74462 73.4507 6.41181 78.6105 9.69323 83.0909L11.3068 81.9091ZM5.68182 68.6364H28.3182V66.6364H5.68182V68.6364ZM27.3192 67.6811C27.4191 69.9116 28.1399 71.9129 29.4801 73.6552L31.0654 72.4357C29.9813 71.0265 29.3991 69.4218 29.3172 67.5916L27.3192 67.6811ZM29.4859 73.6626C30.8183 75.3614 32.6165 76.6693 34.8398 77.6037L35.6147 75.7599C33.6562 74.9368 32.1514 73.8204 31.0596 72.4283L29.4859 73.6626ZM34.8398 77.6037C37.073 78.5423 39.5869 79 42.3636 79V77C39.807 77 37.5634 76.5789 35.6147 75.7599L34.8398 77.6037ZM42.3636 79C45.1478 79 47.6442 78.5093 49.829 77.4985L48.9892 75.6833C47.1133 76.5513 44.9128 77 42.3636 77V79ZM49.8349 77.4957C52.0349 76.4604 53.7862 75.034 55.05 73.2048L53.4045 72.0679C52.3653 73.572 50.9045 74.782 48.9833 75.6861L49.8349 77.4957ZM55.0548 73.1979C56.3289 71.3202 56.942 69.1772 56.909 66.8043L54.9092 66.8321C54.9368 68.8228 54.4287 70.5586 53.3998 72.0749L55.0548 73.1979ZM56.909 66.8321C56.9423 64.436 56.2549 62.2793 54.8455 60.4L53.2455 61.6C54.3815 63.1147 54.9365 64.8367 54.9092 66.8043L56.909 66.8321ZM54.8455 60.4C53.4443 58.5318 51.4808 57.1126 49.0098 56.1178L48.2629 57.9731C50.4586 58.8571 52.1012 60.0743 53.2455 61.6L54.8455 60.4ZM49.014 56.1195C46.5638 55.1201 43.7023 54.6364 40.4545 54.6364V56.6364C43.5098 56.6364 46.1029 57.0921 48.2587 57.9714L49.014 56.1195ZM40.4545 54.6364H31.4091V56.6364H40.4545V54.6364ZM32.4091 55.6364V39.6364H30.4091V55.6364H32.4091ZM31.4091 40.6364H40.4545V38.6364H31.4091V40.6364ZM40.4545 40.6364C43.3212 40.6364 45.8858 40.1638 48.126 39.1898L47.3285 37.3557C45.3869 38.1998 43.1031 38.6364 40.4545 38.6364V40.6364ZM48.1212 39.1919C50.3847 38.2218 52.1901 36.8434 53.4925 35.04L51.8711 33.8691C50.8099 35.3384 49.3123 36.5055 47.3334 37.3536L48.1212 39.1919ZM53.4976 35.033C54.8088 33.1838 55.4421 31.0647 55.409 28.7132L53.4092 28.7414C53.4367 30.6928 52.9185 32.392 51.8661 33.8761L53.4976 35.033ZM55.409 28.7418C55.4418 26.4745 54.8974 24.4408 53.7461 22.68L52.0721 23.7745C52.9814 25.1652 53.4369 26.7982 53.4092 28.7128L55.409 28.7418ZM53.758 22.6987C52.6512 20.9211 51.0935 19.555 49.117 18.5997L48.2467 20.4003C49.9065 21.2026 51.167 22.3213 52.0602 23.7558L53.758 22.6987ZM49.1229 18.6026C47.1745 17.6448 44.9428 17.1818 42.4545 17.1818V19.1818C44.6935 19.1818 46.6134 19.5976 48.2407 20.3974L49.1229 18.6026ZM42.4545 17.1818C39.8499 17.1818 37.4549 17.6429 35.2846 18.5823L36.079 20.4177C37.9694 19.5995 40.0895 19.1818 42.4545 19.1818V17.1818ZM35.2795 18.5845C33.135 19.5268 31.399 20.8742 30.1037 22.6346L31.7145 23.82C32.7828 22.3682 34.2287 21.2308 36.0841 20.4155L35.2795 18.5845ZM30.1037 22.6346C28.7933 24.4153 28.1119 26.4788 28.0459 28.7896L30.045 28.8467C30.1002 26.9152 30.6612 25.2513 31.7145 23.82L30.1037 22.6346ZM29.0455 27.8182H7.54545V29.8182H29.0455V27.8182ZM8.5454 28.8291C8.60392 23.4745 10.0919 18.7991 12.9936 14.7658L11.3701 13.5978C8.2111 17.9888 6.60821 23.0709 6.54551 28.8072L8.5454 28.8291ZM12.9956 14.7631C15.9146 10.6764 19.8928 7.46466 24.9628 5.136L24.1281 3.31854C18.7738 5.77775 14.5096 9.20241 11.3681 13.6006L12.9956 14.7631ZM24.9608 5.13692C30.0534 2.81141 35.8778 1.63636 42.4545 1.63636V-0.36364C35.6373 -0.36364 29.5224 0.855253 24.1301 3.31763L24.9608 5.13692ZM42.4545 1.63636C49.0046 1.63636 54.7206 2.78239 59.6267 5.04448L60.4642 3.22824C55.2491 0.823666 49.2378 -0.36364 42.4545 -0.36364V1.63636ZM59.6267 5.04448C64.5483 7.31368 68.3404 10.3883 71.0441 14.2549L72.6832 13.1088C69.7505 8.91471 65.6639 5.62571 60.4642 3.22824L59.6267 5.04448ZM71.0462 14.2578C73.7413 18.0831 75.0909 22.4108 75.0909 27.2727H77.0909C77.0909 22.0134 75.6223 17.2805 72.6811 13.1059L71.0462 14.2578ZM75.0909 27.2785C75.1198 32.2754 73.4985 36.3261 70.2537 39.5139L71.6554 40.9406C75.3197 37.3406 77.1226 32.7549 77.0909 27.2669L75.0909 27.2785ZM70.2506 39.517C66.9977 42.7412 62.794 44.7493 57.5827 45.5105L57.8718 47.4895C63.4484 46.6749 68.0629 44.5013 71.6585 40.9375L70.2506 39.517ZM56.7273 46.5V47.2273H58.7273V46.5H56.7273ZM57.6104 48.2204C64.6775 49.0518 69.8688 51.3218 73.3242 54.9199L74.7667 53.5346C70.8888 49.4964 65.2013 47.0997 57.8441 46.2341L57.6104 48.2204ZM73.327 54.9229C76.8272 58.5378 78.5745 63.052 78.5455 68.5402L80.5454 68.5507C80.577 62.5844 78.6577 57.5532 74.7639 53.5317L73.327 54.9229ZM78.5455 68.5455C78.5455 73.7269 77.0225 78.3007 73.9769 82.3036L75.5686 83.5146C78.8866 79.1538 80.5455 74.1519 80.5455 68.5455H78.5455ZM73.9762 82.3045C70.9472 86.2946 66.7042 89.469 61.2 91.8069L61.9818 93.6477C67.7504 91.1976 72.2952 87.8266 75.5692 83.5137L73.9762 82.3045ZM61.2024 91.8058C55.7409 94.1085 49.4376 95.2727 42.2727 95.2727V97.2727C49.6533 97.2727 56.2288 96.0733 61.9794 93.6487L61.2024 91.8058Z" fill="#8A8484"/>
</svg>
