<svg width="76" height="95" viewBox="0 0 76 95" fill="none" xmlns="http://www.w3.org/2000/svg">
<path d="M6.86364 95V78.8182L40.8182 49.0909C43.3636 46.7879 45.5303 44.6818 47.3182 42.7727C49.1061 40.8333 50.4697 38.8939 51.4091 36.9545C52.3485 34.9848 52.8182 32.8485 52.8182 30.5455C52.8182 27.9697 52.2576 25.7727 51.1364 23.9545C50.0152 22.1061 48.4697 20.6818 46.5 19.6818C44.5303 18.6818 42.2727 18.1818 39.7273 18.1818C37.1515 18.1818 34.8939 18.7121 32.9545 19.7727C31.0152 20.803 29.5 22.303 28.4091 24.2727C27.3485 26.2424 26.8182 28.6364 26.8182 31.4545H5.5C5.5 25.1212 6.92424 19.6515 9.77273 15.0455C12.6212 10.4394 16.6212 6.89394 21.7727 4.40909C26.9545 1.89394 32.9697 0.63636 39.8182 0.63636C46.8788 0.63636 53.0152 1.81818 58.2273 4.18182C63.4394 6.54545 67.4697 9.84848 70.3182 14.0909C73.197 18.303 74.6364 23.197 74.6364 28.7727C74.6364 32.3182 73.9242 35.8333 72.5 39.3182C71.0758 42.803 68.5152 46.6515 64.8182 50.8636C61.1515 55.0758 55.9394 60.1212 49.1818 66L38.0455 76.2727V76.8636H75.7727V95H6.86364Z" fill="black"/>
<path d="M6.86364 95H5.86364V96H6.86364V95ZM6.86364 78.8182L6.20492 78.0658L5.86364 78.3646V78.8182H6.86364ZM40.8182 49.0909L41.4769 49.8433L41.483 49.8379L41.4891 49.8324L40.8182 49.0909ZM47.3182 42.7727L48.0481 43.4563L48.0534 43.4505L47.3182 42.7727ZM51.4091 36.9545L52.3091 37.3905L52.3117 37.385L51.4091 36.9545ZM51.1364 23.9545L50.2813 24.4732L50.2852 24.4794L51.1364 23.9545ZM46.5 19.6818L46.0473 20.5735L46.0473 20.5735L46.5 19.6818ZM32.9545 19.7727L33.4237 20.6559L33.4344 20.6501L32.9545 19.7727ZM28.4091 24.2727L27.5342 23.7882L27.5286 23.7986L28.4091 24.2727ZM26.8182 31.4545V32.4545H27.8182V31.4545H26.8182ZM5.5 31.4545H4.5V32.4545H5.5V31.4545ZM9.77273 15.0455L10.6232 15.5714L10.6232 15.5714L9.77273 15.0455ZM21.7727 4.40909L22.2072 5.30979L22.2094 5.30871L21.7727 4.40909ZM58.2273 4.18182L58.6403 3.27109L58.6403 3.27109L58.2273 4.18182ZM70.3182 14.0909L69.4879 14.6484L69.4926 14.6552L70.3182 14.0909ZM72.5 39.3182L71.5743 38.9399L71.5743 38.9399L72.5 39.3182ZM64.8182 50.8636L64.0666 50.204L64.0639 50.2071L64.8182 50.8636ZM49.1818 66L48.5255 65.2455L48.5145 65.2551L48.5038 65.265L49.1818 66ZM38.0455 76.2727L37.3674 75.5377L37.0455 75.8347V76.2727H38.0455ZM38.0455 76.8636H37.0455V77.8636H38.0455V76.8636ZM75.7727 76.8636H76.7727V75.8636H75.7727V76.8636ZM75.7727 95V96H76.7727V95H75.7727ZM7.86364 95V78.8182H5.86364V95H7.86364ZM7.52235 79.5706L41.4769 49.8433L40.1595 48.3385L6.20492 78.0658L7.52235 79.5706ZM41.4891 49.8324C44.0491 47.5163 46.2366 45.3906 48.0481 43.4563L46.5883 42.0892C44.824 43.9731 42.6782 46.0595 40.1473 48.3494L41.4891 49.8324ZM48.0534 43.4505C49.8935 41.4545 51.3186 39.4353 52.3091 37.3905L50.5091 36.5186C49.6208 38.3526 48.3186 40.2121 46.5829 42.0949L48.0534 43.4505ZM52.3117 37.385C53.3187 35.2735 53.8182 32.989 53.8182 30.5455H51.8182C51.8182 32.708 51.3782 34.6962 50.5065 36.5241L52.3117 37.385ZM53.8182 30.5455C53.8182 27.8227 53.2244 25.4354 51.9875 23.4297L50.2852 24.4794C51.2908 26.1101 51.8182 28.1167 51.8182 30.5455H53.8182ZM51.9914 23.4359C50.7713 21.4244 49.0848 19.8726 46.9527 18.7901L46.0473 20.5735C47.8546 21.491 49.259 22.7877 50.2814 24.4732L51.9914 23.4359ZM46.9527 18.7901C44.8228 17.7088 42.406 17.1818 39.7273 17.1818V19.1818C42.1394 19.1818 44.2379 19.6548 46.0473 20.5735L46.9527 18.7901ZM39.7273 17.1818C37.0117 17.1818 34.5839 17.7419 32.4747 18.8954L33.4344 20.6501C35.204 19.6823 37.2913 19.1818 39.7273 19.1818V17.1818ZM32.4854 18.8896C30.3705 20.0131 28.7165 21.6537 27.5343 23.7882L29.2839 24.7572C30.2835 22.9523 31.6598 21.5929 33.4237 20.6558L32.4854 18.8896ZM27.5286 23.7986C26.3718 25.9471 25.8182 28.513 25.8182 31.4545H27.8182C27.8182 28.7597 28.3252 26.5378 29.2896 24.7468L27.5286 23.7986ZM26.8182 30.4545H5.5V32.4545H26.8182V30.4545ZM6.5 31.4545C6.5 25.2751 7.88802 19.9943 10.6232 15.5714L8.92222 14.5195C5.96046 19.3087 4.5 24.9674 4.5 31.4545H6.5ZM10.6232 15.5714C13.3658 11.1366 17.2171 7.71676 22.2072 5.30978L21.3383 3.50839C16.0253 6.07112 11.8766 9.74217 8.92222 14.5195L10.6232 15.5714ZM22.2094 5.30871C27.2318 2.87096 33.0927 1.63636 39.8182 1.63636V-0.36364C32.8467 -0.36364 26.6773 0.916914 21.3361 3.50946L22.2094 5.30871ZM39.8182 1.63636C46.7688 1.63636 52.7585 2.79981 57.8143 5.09254L58.6403 3.27109C53.2718 0.836543 46.9888 -0.36364 39.8182 -0.36364V1.63636ZM57.8143 5.09254C62.8781 7.38892 66.7551 10.5781 69.488 14.6483L71.1484 13.5335C68.1843 9.11884 64.0007 5.70198 58.6403 3.27109L57.8143 5.09254ZM69.4926 14.6552C72.2472 18.6856 73.6364 23.3788 73.6364 28.7727H75.6364C75.6364 23.0152 74.1467 17.9205 71.1438 13.5266L69.4926 14.6552ZM73.6364 28.7727C73.6364 32.1806 72.9526 35.5676 71.5743 38.9399L73.4257 39.6965C74.8959 36.0991 75.6364 32.4558 75.6364 28.7727H73.6364ZM71.5743 38.9399C70.2073 42.2848 67.7226 46.0386 64.0666 50.204L65.5698 51.5233C69.3077 47.2644 71.9442 43.3213 73.4257 39.6965L71.5743 38.9399ZM64.0639 50.2071C60.4401 54.37 55.2663 59.3813 48.5255 65.2455L49.8382 66.7545C56.6125 60.8611 61.863 55.7815 65.5724 51.5202L64.0639 50.2071ZM48.5038 65.265L37.3674 75.5377L38.7235 77.0078L49.8599 66.735L48.5038 65.265ZM37.0455 76.2727V76.8636H39.0455V76.2727H37.0455ZM38.0455 77.8636H75.7727V75.8636H38.0455V77.8636ZM74.7727 76.8636V95H76.7727V76.8636H74.7727ZM75.7727 94H6.86364V96H75.7727V94Z" fill="#8A8484"/>
</svg>
