<svg width="84" height="94" viewBox="0 0 84 94" fill="none" xmlns="http://www.w3.org/2000/svg">
<path d="M5.72727 78.5455V61L43.8636 0.909088H59.4545V24.7273H50.4091L28.0909 60.0909V60.8182H83.3182V78.5455H5.72727ZM50.6818 94V73.1818L51.1364 65.5V0.909088H72.1818V94H50.6818Z" fill="black"/>
<path d="M5.72727 78.5455H4.72727V79.5455H5.72727V78.5455ZM5.72727 61L4.88295 60.4642L4.72727 60.7095V61H5.72727ZM43.8636 0.909088V-0.0909119H43.3139L43.0193 0.373246L43.8636 0.909088ZM59.4545 0.909088H60.4545V-0.0909119H59.4545V0.909088ZM59.4545 24.7273V25.7273H60.4545V24.7273H59.4545ZM50.4091 24.7273V23.7273H49.8577L49.5634 24.1936L50.4091 24.7273ZM28.0909 60.0909L27.2452 59.5572L27.0909 59.8017V60.0909H28.0909ZM28.0909 60.8182H27.0909V61.8182H28.0909V60.8182ZM83.3182 60.8182H84.3182V59.8182H83.3182V60.8182ZM83.3182 78.5455V79.5455H84.3182V78.5455H83.3182ZM50.6818 94H49.6818V95H50.6818V94ZM50.6818 73.1818L49.6836 73.1227L49.6818 73.1523V73.1818H50.6818ZM51.1364 65.5L52.1346 65.5591L52.1364 65.5296V65.5H51.1364ZM51.1364 0.909088V-0.0909119H50.1364V0.909088H51.1364ZM72.1818 0.909088H73.1818V-0.0909119H72.1818V0.909088ZM72.1818 94V95H73.1818V94H72.1818ZM6.72727 78.5455V61H4.72727V78.5455H6.72727ZM6.57159 61.5358L44.708 1.44493L43.0193 0.373246L4.88295 60.4642L6.57159 61.5358ZM43.8636 1.90909H59.4545V-0.0909119H43.8636V1.90909ZM58.4545 0.909088V24.7273H60.4545V0.909088H58.4545ZM59.4545 23.7273H50.4091V25.7273H59.4545V23.7273ZM49.5634 24.1936L27.2452 59.5572L28.9366 60.6246L51.2548 25.261L49.5634 24.1936ZM27.0909 60.0909V60.8182H29.0909V60.0909H27.0909ZM28.0909 61.8182H83.3182V59.8182H28.0909V61.8182ZM82.3182 60.8182V78.5455H84.3182V60.8182H82.3182ZM83.3182 77.5455H5.72727V79.5455H83.3182V77.5455ZM51.6818 94V73.1818H49.6818V94H51.6818ZM51.6801 73.2409L52.1346 65.5591L50.1381 65.4409L49.6836 73.1227L51.6801 73.2409ZM52.1364 65.5V0.909088H50.1364V65.5H52.1364ZM51.1364 1.90909H72.1818V-0.0909119H51.1364V1.90909ZM71.1818 0.909088V94H73.1818V0.909088H71.1818ZM72.1818 93H50.6818V95H72.1818V93Z" fill="#8A8484"/>
</svg>
