<svg width="79" height="96" viewBox="0 0 79 96" fill="none" xmlns="http://www.w3.org/2000/svg">
<path d="M42.5 95.2727C35.7121 95.2727 29.6818 94.0455 24.4091 91.5909C19.1364 89.1364 14.9697 85.7576 11.9091 81.4545C8.87879 77.1515 7.30303 72.2121 7.18182 66.6364H29C29.1818 70.0606 30.5758 72.8182 33.1818 74.9091C35.7879 76.9697 38.8939 78 42.5 78C45.3182 78 47.8182 77.3788 50 76.1364C52.1818 74.8939 53.8939 73.1515 55.1364 70.9091C56.3788 68.6364 56.9848 66.0303 56.9545 63.0909C56.9848 60.0909 56.3636 57.4697 55.0909 55.2273C53.8485 52.9848 52.1212 51.2424 49.9091 50C47.7273 48.7273 45.2121 48.0909 42.3636 48.0909C39.6667 48.0606 37.1061 48.6515 34.6818 49.8636C32.2879 51.0758 30.4697 52.7273 29.2273 54.8182L9.36364 51.0909L13.4091 0.909088H73.1364V19.0455H31.9091L29.7727 41H30.3182C31.8636 38.4242 34.3485 36.303 37.7727 34.6364C41.2273 32.9394 45.1515 32.0909 49.5455 32.0909C55.1212 32.0909 60.0909 33.3939 64.4545 36C68.8485 38.5758 72.303 42.1515 74.8182 46.7273C77.3636 51.303 78.6364 56.5455 78.6364 62.4545C78.6364 68.8485 77.1212 74.5152 74.0909 79.4545C71.0909 84.3939 66.8788 88.2727 61.4545 91.0909C56.0606 93.8788 49.7424 95.2727 42.5 95.2727Z" fill="black"/>
<path d="M24.4091 91.5909L23.9871 92.4975L23.9871 92.4975L24.4091 91.5909ZM11.9091 81.4545L11.0915 82.0303L11.0942 82.0342L11.9091 81.4545ZM7.18182 66.6364V65.6364H6.15984L6.18205 66.6581L7.18182 66.6364ZM29 66.6364L29.9986 66.5833L29.9483 65.6364H29V66.6364ZM33.1818 74.9091L32.556 75.6891L32.5616 75.6935L33.1818 74.9091ZM50 76.1364L49.5052 75.2674L49.5052 75.2674L50 76.1364ZM55.1364 70.9091L56.0111 71.3937L56.0138 71.3888L55.1364 70.9091ZM56.9545 63.0909L55.9546 63.0808L55.9545 63.091L55.9546 63.1012L56.9545 63.0909ZM55.0909 55.2273L54.2162 55.7119L54.2212 55.7209L55.0909 55.2273ZM49.9091 50L49.4052 50.8638L49.4123 50.8679L49.4194 50.8719L49.9091 50ZM42.3636 48.0909L42.3524 49.0909H42.3636V48.0909ZM34.6818 49.8636L34.2346 48.9692L34.2301 48.9715L34.6818 49.8636ZM29.2273 54.8182L29.0428 55.801L29.7299 55.9299L30.087 55.329L29.2273 54.8182ZM9.36364 51.0909L8.36687 51.0106L8.29454 51.9078L9.17921 52.0738L9.36364 51.0909ZM13.4091 0.909088V-0.0909119H12.4865L12.4123 0.828733L13.4091 0.909088ZM73.1364 0.909088H74.1364V-0.0909119H73.1364V0.909088ZM73.1364 19.0455V20.0455H74.1364V19.0455H73.1364ZM31.9091 19.0455V18.0455H31.0017L30.9138 18.9486L31.9091 19.0455ZM29.7727 41L28.7774 40.9031L28.6707 42H29.7727V41ZM30.3182 41V42H30.8844L31.1757 41.5145L30.3182 41ZM37.7727 34.6364L38.2104 35.5355L38.2136 35.5339L37.7727 34.6364ZM64.4545 36L63.9418 36.8586L63.9488 36.8627L64.4545 36ZM74.8182 46.7273L73.9418 47.209L73.9443 47.2134L74.8182 46.7273ZM74.0909 79.4545L73.2385 78.9316L73.2362 78.9354L74.0909 79.4545ZM61.4545 91.0909L61.9137 91.9793L61.9156 91.9783L61.4545 91.0909ZM42.5 94.2727C35.8337 94.2727 29.9514 93.0679 24.8311 90.6843L23.9871 92.4975C29.4123 95.023 35.5905 96.2727 42.5 96.2727V94.2727ZM24.8311 90.6843C19.6991 88.2953 15.6742 85.0228 12.724 80.8749L11.0942 82.0342C14.2652 86.4924 18.5736 89.9774 23.9871 92.4975L24.8311 90.6843ZM12.7267 80.8788C9.8178 76.7481 8.29875 72.0042 8.18158 66.6146L6.18205 66.6581C6.30731 72.42 7.93977 77.5549 11.0915 82.0303L12.7267 80.8788ZM7.18182 67.6364H29V65.6364H7.18182V67.6364ZM28.0014 66.6894C28.1979 70.3894 29.7213 73.4147 32.556 75.6891L33.8076 74.1291C31.4302 72.2217 30.1658 69.7318 29.9986 66.5833L28.0014 66.6894ZM32.5616 75.6935C35.3597 77.9059 38.6893 79 42.5 79V77C39.0986 77 36.2161 76.0334 33.8021 74.1247L32.5616 75.6935ZM42.5 79C45.47 79 48.1445 78.3438 50.4948 77.0053L49.5052 75.2674C47.4919 76.4138 45.1663 77 42.5 77V79ZM50.4948 77.0053C52.8397 75.6701 54.6817 73.7931 56.0111 71.3937L54.2616 70.4245C53.1062 72.5099 51.524 74.1178 49.5052 75.2674L50.4948 77.0053ZM56.0138 71.3888C57.3489 68.9466 57.9863 66.1677 57.9545 63.0806L55.9546 63.1012C55.9834 65.8929 55.4087 68.3262 54.2589 70.4294L56.0138 71.3888ZM57.9545 63.101C57.9863 59.9537 57.3338 57.1531 55.9606 54.7337L54.2212 55.7209C55.3935 57.7863 55.9834 60.2281 55.9546 63.0808L57.9545 63.101ZM55.9656 54.7426C54.6343 52.3397 52.7745 50.4624 50.3988 49.1281L49.4194 50.8719C51.468 52.0225 53.0627 53.63 54.2162 55.7119L55.9656 54.7426ZM50.413 49.1362C48.0594 47.7633 45.3661 47.0909 42.3636 47.0909V49.0909C45.0581 49.0909 47.3951 49.6912 49.4052 50.8638L50.413 49.1362ZM42.3749 47.091C39.5181 47.0589 36.8004 47.6863 34.2346 48.9692L35.129 50.7581C37.4118 49.6167 39.8153 49.0623 42.3524 49.0908L42.3749 47.091ZM34.2301 48.9715C31.6848 50.2602 29.7169 52.0366 28.3676 54.3074L30.087 55.329C31.2225 53.418 32.8909 51.8913 35.1335 50.7558L34.2301 48.9715ZM29.4117 53.8353L9.54806 50.1081L9.17921 52.0738L29.0428 55.801L29.4117 53.8353ZM10.3604 51.1713L14.4059 0.989443L12.4123 0.828733L8.36687 51.0106L10.3604 51.1713ZM13.4091 1.90909H73.1364V-0.0909119H13.4091V1.90909ZM72.1364 0.909088V19.0455H74.1364V0.909088H72.1364ZM73.1364 18.0455H31.9091V20.0455H73.1364V18.0455ZM30.9138 18.9486L28.7774 40.9031L30.768 41.0969L32.9044 19.1423L30.9138 18.9486ZM29.7727 42H30.3182V40H29.7727V42ZM31.1757 41.5145C32.5978 39.1443 34.914 37.14 38.2104 35.5355L37.3351 33.7372C33.783 35.4661 31.1295 37.7042 29.4607 40.4855L31.1757 41.5145ZM38.2136 35.5339C41.5127 33.9133 45.2827 33.0909 49.5455 33.0909V31.0909C45.0204 31.0909 40.9418 31.9655 37.3318 33.7388L38.2136 35.5339ZM49.5455 33.0909C54.9587 33.0909 59.748 34.3539 63.9418 36.8585L64.9673 35.1415C60.4338 32.434 55.2837 31.0909 49.5455 31.0909V33.0909ZM63.9488 36.8627C68.1831 39.3448 71.5113 42.7871 73.9418 47.209L75.6945 46.2456C73.0948 41.5159 69.5139 37.8067 64.9603 35.1373L63.9488 36.8627ZM73.9443 47.2134C76.3969 51.6222 77.6364 56.6934 77.6364 62.4545H79.6364C79.6364 56.3975 78.3304 50.9839 75.6921 46.2411L73.9443 47.2134ZM77.6364 62.4545C77.6364 68.6836 76.1625 74.1655 73.2385 78.9316L74.9433 79.9775C78.0799 74.8648 79.6364 69.0134 79.6364 62.4545H77.6364ZM73.2362 78.9354C70.3368 83.7092 66.2651 87.4647 60.9935 90.2035L61.9156 91.9783C67.4925 89.0808 71.845 85.0787 74.9456 79.9737L73.2362 78.9354ZM60.9954 90.2026C55.7683 92.9042 49.6133 94.2727 42.5 94.2727V96.2727C49.8716 96.2727 56.3529 94.8534 61.9137 91.9793L60.9954 90.2026Z" fill="#8A8484"/>
</svg>
