<svg width="76" height="97" viewBox="0 0 76 97" fill="none" xmlns="http://www.w3.org/2000/svg">
<path d="M39.1818 96.2727C34.0909 96.2727 29.2121 95.4545 24.5455 93.8182C19.8788 92.1515 15.7273 89.5152 12.0909 85.9091C8.45455 82.2727 5.59091 77.5152 3.5 71.6364C1.40909 65.7273 0.378788 58.5303 0.409091 50.0455C0.439394 42.3788 1.37879 35.5 3.22727 29.4091C5.07576 23.2879 7.71212 18.0909 11.1364 13.8182C14.5909 9.54545 18.7121 6.28787 23.5 4.04545C28.3182 1.77272 33.697 0.63636 39.6364 0.63636C46.1515 0.63636 51.8939 1.90909 56.8636 4.45454C61.8636 6.9697 65.8636 10.3636 68.8636 14.6364C71.8636 18.8788 73.6364 23.6061 74.1818 28.8182H52.0455C51.3788 25.8788 49.9091 23.6515 47.6364 22.1364C45.3939 20.5909 42.7273 19.8182 39.6364 19.8182C33.9394 19.8182 29.6818 22.2879 26.8636 27.2273C24.0758 32.1667 22.6515 38.7727 22.5909 47.0455H23.1818C24.4545 44.2576 26.2879 41.8636 28.6818 39.8636C31.0758 37.8636 33.8182 36.3333 36.9091 35.2727C40.0303 34.1818 43.3333 33.6364 46.8182 33.6364C52.3939 33.6364 57.3182 34.9242 61.5909 37.5C65.8636 40.0758 69.2121 43.6061 71.6364 48.0909C74.0606 52.5455 75.2576 57.6515 75.2273 63.4091C75.2576 69.8939 73.7424 75.6212 70.6818 80.5909C67.6212 85.5303 63.3788 89.3788 57.9545 92.1364C52.5606 94.8939 46.303 96.2727 39.1818 96.2727ZM39.0455 79C41.803 79 44.2727 78.3485 46.4545 77.0455C48.6364 75.7424 50.3485 73.9697 51.5909 71.7273C52.8333 69.4848 53.4394 66.9545 53.4091 64.1364C53.4394 61.2879 52.8333 58.7576 51.5909 56.5455C50.3788 54.3333 48.6818 52.5758 46.5 51.2727C44.3485 49.9697 41.8788 49.3182 39.0909 49.3182C37.0606 49.3182 35.1667 49.697 33.4091 50.4545C31.6515 51.2121 30.1212 52.2727 28.8182 53.6364C27.5455 54.9697 26.5455 56.5455 25.8182 58.3636C25.0909 60.1515 24.7121 62.0909 24.6818 64.1818C24.7121 66.9394 25.3485 69.4394 26.5909 71.6818C27.8333 73.9242 29.5303 75.7121 31.6818 77.0455C33.8333 78.3485 36.2879 79 39.0455 79Z" fill="black"/>
<path d="M24.5455 93.8182L24.2091 94.7599L24.2146 94.7618L24.5455 93.8182ZM12.0909 85.9091L11.3838 86.6162L11.3868 86.6192L12.0909 85.9091ZM3.5 71.6364L2.55728 71.9699L2.55782 71.9715L3.5 71.6364ZM0.409091 50.0455L-0.590901 50.0415L-0.590903 50.0419L0.409091 50.0455ZM3.22727 29.4091L4.18418 29.6995L4.18458 29.6982L3.22727 29.4091ZM11.1364 13.8182L10.3587 13.1894L10.356 13.1928L11.1364 13.8182ZM23.5 4.04545L23.9241 4.95105L23.9266 4.94988L23.5 4.04545ZM56.8636 4.45454L56.4078 5.34461L56.4143 5.34789L56.8636 4.45454ZM68.8636 14.6364L68.0452 15.211L68.0472 15.2137L68.8636 14.6364ZM74.1818 28.8182V29.8182H75.2919L75.1764 28.7141L74.1818 28.8182ZM52.0455 28.8182L51.0702 29.0394L51.2469 29.8182H52.0455V28.8182ZM47.6364 22.1364L47.0689 22.9598L47.0752 22.9641L47.0817 22.9684L47.6364 22.1364ZM26.8636 27.2273L25.9951 26.7317L25.9928 26.7357L26.8636 27.2273ZM22.5909 47.0455L21.5909 47.0381L21.5836 48.0455H22.5909V47.0455ZM23.1818 47.0455V48.0455H23.8246L24.0915 47.4607L23.1818 47.0455ZM28.6818 39.8636L29.323 40.6311L29.323 40.6311L28.6818 39.8636ZM36.9091 35.2727L37.2337 36.2186L37.239 36.2167L36.9091 35.2727ZM61.5909 37.5L61.0746 38.3564L61.0746 38.3564L61.5909 37.5ZM71.6364 48.0909L70.7567 48.5664L70.758 48.5689L71.6364 48.0909ZM75.2273 63.4091L74.2272 63.4038L74.2273 63.4138L75.2273 63.4091ZM70.6818 80.5909L71.5319 81.1176L71.5333 81.1153L70.6818 80.5909ZM57.9545 92.1364L57.5014 91.2449L57.4993 91.246L57.9545 92.1364ZM53.4091 64.1364L52.4091 64.1257L52.409 64.1364L52.4091 64.1471L53.4091 64.1364ZM51.5909 56.5455L50.7139 57.026L50.719 57.0351L51.5909 56.5455ZM46.5 51.2727L45.982 52.1281L45.9873 52.1313L46.5 51.2727ZM28.8182 53.6364L28.0952 52.9455L28.0948 52.9459L28.8182 53.6364ZM25.8182 58.3636L26.7445 58.7404L26.7467 58.735L25.8182 58.3636ZM24.6818 64.1818L23.6819 64.1673L23.6817 64.1801L23.6819 64.1928L24.6818 64.1818ZM26.5909 71.6818L25.7162 72.1665L25.7162 72.1665L26.5909 71.6818ZM31.6818 77.0455L31.155 77.8955L31.1638 77.9008L31.6818 77.0455ZM39.1818 95.2727C34.2002 95.2727 29.4336 94.4725 24.8764 92.8745L24.2146 94.7618C28.9907 96.4366 33.9816 97.2727 39.1818 97.2727V95.2727ZM24.8818 92.8764C20.3579 91.2608 16.3309 88.7054 12.7951 85.199L11.3868 86.6192C15.1237 90.3249 19.3997 93.0423 24.2091 94.7599L24.8818 92.8764ZM12.798 85.202C9.28665 81.6906 6.49376 77.0695 4.44218 71.3013L2.55782 71.9715C4.68806 77.9608 7.62244 82.8548 11.3838 86.6162L12.798 85.202ZM4.44272 71.3028C2.401 65.5327 1.37906 58.457 1.40908 50.049L-0.590903 50.0419C-0.62148 58.6036 0.417177 65.9218 2.55728 71.9699L4.44272 71.3028ZM1.40908 50.0494C1.43908 42.4607 2.36895 35.6808 4.18418 29.6995L2.27037 29.1187C0.388628 35.3192 -0.56029 42.2969 -0.590901 50.0415L1.40908 50.0494ZM4.18458 29.6982C6.00221 23.6791 8.58462 18.6013 11.9167 14.4435L10.356 13.1928C6.83962 17.5805 4.1493 22.8966 2.26997 29.12L4.18458 29.6982ZM11.914 14.4469C15.2771 10.2873 19.279 7.12662 23.9241 4.95104L23.0759 3.13985C18.1452 5.44913 13.9047 8.8036 10.3587 13.1895L11.914 14.4469ZM23.9266 4.94988C28.5968 2.74699 33.8274 1.63636 39.6364 1.63636V-0.36364C33.5665 -0.36364 28.0396 0.798458 23.0734 3.14102L23.9266 4.94988ZM39.6364 1.63636C46.0194 1.63636 51.601 2.88256 56.4078 5.34459L57.3195 3.5645C52.1869 0.935614 46.2836 -0.36364 39.6364 -0.36364V1.63636ZM56.4143 5.34789C61.2778 7.79437 65.1468 11.083 68.0452 15.211L69.6821 14.0617C66.5804 9.64428 62.4495 6.14502 57.313 3.5612L56.4143 5.34789ZM68.0472 15.2137C70.9473 19.315 72.6595 23.879 73.1873 28.9223L75.1764 28.7141C74.6133 23.3331 72.7799 18.4426 69.6801 14.059L68.0472 15.2137ZM74.1818 27.8182H52.0455V29.8182H74.1818V27.8182ZM53.0207 28.597C52.3037 25.4358 50.7 22.9769 48.1911 21.3043L47.0817 22.9684C49.1182 24.3261 50.4539 26.3218 51.0702 29.0394L53.0207 28.597ZM48.2038 21.313C45.7726 19.6374 42.9016 18.8182 39.6364 18.8182V20.8182C42.5529 20.8182 45.0153 21.5444 47.0689 22.9598L48.2038 21.313ZM39.6364 18.8182C33.5811 18.8182 28.9916 21.4797 25.9951 26.7317L27.7322 27.7228C30.372 23.096 34.2977 20.8182 39.6364 20.8182V18.8182ZM25.9928 26.7357C23.0919 31.8754 21.6523 38.6683 21.5909 47.0381L23.5909 47.0528C23.6508 38.8772 25.0597 32.4579 27.7345 27.7188L25.9928 26.7357ZM22.5909 48.0455H23.1818V46.0455H22.5909V48.0455ZM24.0915 47.4607C25.301 44.8113 27.0416 42.537 29.323 40.6311L28.0407 39.0962C25.5342 41.1903 23.6081 43.7038 22.2721 46.6302L24.0915 47.4607ZM29.323 40.6311C31.6187 38.7131 34.2527 37.2415 37.2337 36.2186L36.5845 34.3269C33.3837 35.4252 30.5328 37.0142 28.0407 39.0962L29.323 40.6311ZM37.239 36.2167C40.2486 35.1648 43.4396 34.6364 46.8182 34.6364V32.6364C43.2271 32.6364 39.812 33.1988 36.5791 34.3287L37.239 36.2167ZM46.8182 34.6364C52.234 34.6364 56.9755 35.8853 61.0746 38.3564L62.1072 36.6436C57.6608 33.9632 52.5539 32.6364 46.8182 32.6364V34.6364ZM61.0746 38.3564C65.1909 40.8379 68.4154 44.2351 70.7567 48.5664L72.5161 47.6154C70.0088 42.977 66.5364 39.3137 62.1072 36.6436L61.0746 38.3564ZM70.758 48.5689C73.0912 52.8561 74.2568 57.7919 74.2273 63.4038L76.2273 63.4144C76.2583 57.5112 75.03 52.2348 72.5147 47.6129L70.758 48.5689ZM74.2273 63.4138C74.2568 69.7332 72.7824 75.2731 69.8303 80.0665L71.5333 81.1153C74.7025 75.9693 76.2583 70.0546 76.2273 63.4044L74.2273 63.4138ZM69.8318 80.0642C66.8722 84.8405 62.7705 88.5662 57.5014 91.2449L58.4077 93.0278C63.9871 90.1913 68.3702 86.2201 71.5319 81.1176L69.8318 80.0642ZM57.4993 91.246C52.2691 93.9199 46.1725 95.2727 39.1818 95.2727V97.2727C46.4336 97.2727 52.8521 95.868 58.4097 93.0268L57.4993 91.246ZM39.0455 80C41.9677 80 44.6174 79.3074 46.9673 77.904L45.9418 76.1869C43.9281 77.3895 41.6384 78 39.0455 78V80ZM46.9673 77.904C49.302 76.5096 51.1384 74.6073 52.4656 72.2119L50.7162 71.2426C49.5585 73.3321 47.9707 74.9752 45.9418 76.1869L46.9673 77.904ZM52.4656 72.2119C53.8002 69.8033 54.441 67.0993 54.409 64.1256L52.4091 64.1471C52.4378 66.8098 51.8665 69.1664 50.7162 71.2426L52.4656 72.2119ZM54.409 64.147C54.441 61.1454 53.8011 58.4386 52.4628 56.0558L50.719 57.0351C51.8655 59.0765 52.4378 61.4304 52.4091 64.1257L54.409 64.147ZM52.4679 56.0649C51.1695 53.6954 49.3463 51.8078 47.0127 50.4142L45.9873 52.1313C48.0174 53.3437 49.5881 54.9713 50.7139 57.026L52.4679 56.0649ZM47.018 50.4174C44.6937 49.0097 42.0411 48.3182 39.0909 48.3182V50.3182C41.7165 50.3182 44.0032 50.9297 45.982 52.1281L47.018 50.4174ZM39.0909 48.3182C36.9329 48.3182 34.9033 48.7215 33.0133 49.5362L33.8049 51.3729C35.43 50.6724 37.1883 50.3182 39.0909 50.3182V48.3182ZM33.0133 49.5362C31.1343 50.3461 29.4923 51.4834 28.0952 52.9455L29.5412 54.3272C30.7501 53.062 32.1687 52.0781 33.8049 51.3729L33.0133 49.5362ZM28.0948 52.9459C26.7286 54.3772 25.6614 56.0631 24.8897 57.9922L26.7467 58.735C27.4295 57.0278 28.3623 55.5622 29.5415 54.3268L28.0948 52.9459ZM24.8919 57.9868C24.114 59.8991 23.7139 61.9625 23.6819 64.1673L25.6817 64.1963C25.7104 62.2193 26.0678 60.4039 26.7445 58.7404L24.8919 57.9868ZM23.6819 64.1928C23.7139 67.1033 24.3874 69.7681 25.7162 72.1665L27.4656 71.1972C26.3096 69.1107 25.7104 66.7755 25.6818 64.1708L23.6819 64.1928ZM25.7162 72.1665C27.0404 74.5564 28.8563 76.4709 31.1551 77.8955L32.2086 76.1954C30.2043 74.9534 28.6263 73.2921 27.4656 71.1972L25.7162 72.1665ZM31.1638 77.9008C33.4864 79.3074 36.1234 80 39.0455 80V78C36.4524 78 34.1803 77.3895 32.1999 76.1901L31.1638 77.9008Z" fill="#8A8484"/>
</svg>
