<svg width="68" height="94" viewBox="0 0 68 94" fill="none" xmlns="http://www.w3.org/2000/svg">
<path d="M6.81818 94L44.3636 19.6364V19.0455H0.454545V0.909088H67.6364V19.1818L29.9545 94H6.81818Z" fill="black"/>
<path d="M6.81818 94L5.92551 93.5493L5.19306 95H6.81818V94ZM44.3636 19.6364L45.2563 20.0871L45.3636 19.8745V19.6364H44.3636ZM44.3636 19.0455H45.3636V18.0455H44.3636V19.0455ZM0.454545 19.0455H-0.545455V20.0455H0.454545V19.0455ZM0.454545 0.909088V-0.0909119H-0.545455V0.909088H0.454545ZM67.6364 0.909088H68.6364V-0.0909119H67.6364V0.909088ZM67.6364 19.1818L68.5295 19.6316L68.6364 19.4194V19.1818H67.6364ZM29.9545 94V95H30.5706L30.8477 94.4498L29.9545 94ZM7.71086 94.4507L45.2563 20.0871L43.471 19.1857L5.92551 93.5493L7.71086 94.4507ZM45.3636 19.6364V19.0455H43.3636V19.6364H45.3636ZM44.3636 18.0455H0.454545V20.0455H44.3636V18.0455ZM1.45455 19.0455V0.909088H-0.545455V19.0455H1.45455ZM0.454545 1.90909H67.6364V-0.0909119H0.454545V1.90909ZM66.6364 0.909088V19.1818H68.6364V0.909088H66.6364ZM66.7432 18.732L29.0614 93.5502L30.8477 94.4498L68.5295 19.6316L66.7432 18.732ZM29.9545 93H6.81818V95H29.9545V93Z" fill="#8A8484"/>
</svg>
