<svg width="76" height="97" viewBox="0 0 76 97" fill="none" xmlns="http://www.w3.org/2000/svg">
<path d="M38.2273 96.2727C30.9848 96.2727 24.5152 95.1212 18.8182 92.8182C13.1515 90.4848 8.69697 87.3333 5.45455 83.3636C2.24242 79.3636 0.636364 74.8485 0.636364 69.8182C0.636364 65.9697 1.56061 62.4394 3.40909 59.2273C5.25758 56.0151 7.75758 53.3485 10.9091 51.2273C14.0909 49.0758 17.6364 47.697 21.5455 47.0909V46.3636C16.4242 45.4242 12.2273 43.0455 8.95455 39.2273C5.71212 35.4091 4.09091 30.9394 4.09091 25.8182C4.09091 20.9697 5.56061 16.6515 8.5 12.8636C11.4697 9.07575 15.5152 6.09091 20.6364 3.90909C25.7879 1.72727 31.6515 0.63636 38.2273 0.63636C44.803 0.63636 50.6515 1.72727 55.7727 3.90909C60.9242 6.09091 64.9697 9.07575 67.9091 12.8636C70.8788 16.6515 72.3636 20.9697 72.3636 25.8182C72.3636 30.9697 70.7121 35.4545 67.4091 39.2727C64.1364 43.0606 59.9697 45.4242 54.9091 46.3636V47.0909C58.7879 47.697 62.303 49.0758 65.4545 51.2273C68.6364 53.3485 71.1515 56.0151 73 59.2273C74.8788 62.4394 75.8182 65.9697 75.8182 69.8182C75.8182 74.8485 74.197 79.3636 70.9545 83.3636C67.7121 87.3333 63.2576 90.4848 57.5909 92.8182C51.9545 95.1212 45.5 96.2727 38.2273 96.2727ZM38.2273 80.3182C40.9848 80.3182 43.4091 79.803 45.5 78.7727C47.5909 77.7121 49.2273 76.2424 50.4091 74.3636C51.6212 72.4848 52.2273 70.3636 52.2273 68C52.2273 65.5758 51.6212 63.4242 50.4091 61.5455C49.197 59.6667 47.5303 58.197 45.4091 57.1364C43.3182 56.0455 40.9242 55.5 38.2273 55.5C35.5606 55.5 33.1667 56.0455 31.0455 57.1364C28.9242 58.197 27.2576 59.6667 26.0455 61.5455C24.8333 63.4242 24.2273 65.5758 24.2273 68C24.2273 70.3636 24.8182 72.4848 26 74.3636C27.2121 76.2121 28.8636 77.6667 30.9545 78.7273C33.0758 79.7879 35.5 80.3182 38.2273 80.3182ZM38.2273 39.6364C40.5909 39.6364 42.6818 39.1515 44.5 38.1818C46.3485 37.2121 47.7879 35.8636 48.8182 34.1364C49.8788 32.4091 50.4091 30.4545 50.4091 28.2727C50.4091 26.0909 49.8788 24.1667 48.8182 22.5C47.7879 20.8333 46.3636 19.5303 44.5455 18.5909C42.7273 17.6212 40.6212 17.1364 38.2273 17.1364C35.8636 17.1364 33.7576 17.6212 31.9091 18.5909C30.0606 19.5303 28.6212 20.8333 27.5909 22.5C26.5606 24.1667 26.0455 26.0909 26.0455 28.2727C26.0455 30.4545 26.5606 32.4091 27.5909 34.1364C28.6515 35.8333 30.1061 37.1818 31.9545 38.1818C33.803 39.1515 35.8939 39.6364 38.2273 39.6364Z" fill="black"/>
<path d="M18.8182 92.8182L18.4374 93.7429L18.4434 93.7453L18.8182 92.8182ZM5.45455 83.3636L4.6748 83.9898L4.68006 83.9962L5.45455 83.3636ZM3.40909 59.2273L4.27582 59.7261L4.27582 59.7261L3.40909 59.2273ZM10.9091 51.2273L11.4675 52.0569L11.4692 52.0557L10.9091 51.2273ZM21.5455 47.0909L21.6987 48.0791L22.5455 47.9478V47.0909H21.5455ZM21.5455 46.3636H22.5455V45.5304L21.7259 45.38L21.5455 46.3636ZM8.95455 39.2273L8.1923 39.8746L8.19529 39.8781L8.95455 39.2273ZM8.5 12.8636L7.71302 12.2466L7.70997 12.2506L8.5 12.8636ZM20.6364 3.90909L20.2464 2.98827L20.2444 2.9891L20.6364 3.90909ZM55.7727 3.90909L55.3808 4.82908L55.3827 4.82991L55.7727 3.90909ZM67.9091 12.8636L67.1191 13.4767L67.1221 13.4806L67.9091 12.8636ZM67.4091 39.2727L66.6528 38.6185L66.6524 38.6189L67.4091 39.2727ZM54.9091 46.3636L54.7266 45.3804L53.9091 45.5322V46.3636H54.9091ZM54.9091 47.0909H53.9091V47.9468L54.7547 48.0789L54.9091 47.0909ZM65.4545 51.2273L64.8907 52.0532L64.8998 52.0593L65.4545 51.2273ZM73 59.2273L72.1332 59.7261L72.1368 59.7322L73 59.2273ZM70.9545 83.3636L71.729 83.9962L71.7314 83.9933L70.9545 83.3636ZM57.5909 92.8182L57.9692 93.7439L57.9717 93.7429L57.5909 92.8182ZM45.5 78.7727L45.942 79.6698L45.9524 79.6646L45.5 78.7727ZM50.4091 74.3636L49.5687 73.8215L49.5626 73.8312L50.4091 74.3636ZM50.4091 61.5455L49.5688 62.0876L49.5688 62.0876L50.4091 61.5455ZM45.4091 57.1364L44.9465 58.0229L44.9542 58.0269L44.9619 58.0308L45.4091 57.1364ZM31.0455 57.1364L31.4927 58.0308L31.5028 58.0257L31.0455 57.1364ZM26.0455 61.5455L25.2052 61.0033L25.2052 61.0033L26.0455 61.5455ZM26 74.3636L25.1535 74.8961L25.1586 74.9041L25.1638 74.912L26 74.3636ZM30.9545 78.7273L30.5022 79.6191L30.5073 79.6217L30.9545 78.7273ZM44.5 38.1818L44.0354 37.2962L44.0294 37.2995L44.5 38.1818ZM48.8182 34.1364L47.9659 33.6131L47.9594 33.6241L48.8182 34.1364ZM48.8182 22.5L47.9675 23.0259L47.9745 23.0369L48.8182 22.5ZM44.5455 18.5909L44.0748 19.4733L44.0864 19.4793L44.5455 18.5909ZM31.9091 18.5909L32.3622 19.4825L32.3736 19.4765L31.9091 18.5909ZM27.5909 22.5L28.4415 23.0258L28.4415 23.0258L27.5909 22.5ZM27.5909 34.1364L26.7321 34.6486L26.7374 34.6576L26.7429 34.6664L27.5909 34.1364ZM31.9545 38.1818L31.4787 39.0614L31.49 39.0674L31.9545 38.1818ZM38.2273 95.2727C31.0908 95.2727 24.7516 94.1382 19.193 91.8911L18.4434 93.7453C24.2787 96.1042 30.8789 97.2727 38.2273 97.2727V95.2727ZM19.1989 91.8935C13.6558 89.611 9.34776 86.5493 6.22903 82.731L4.68006 83.9962C8.04618 88.1174 12.6472 91.3587 18.4374 93.7429L19.1989 91.8935ZM6.23426 82.7375C3.16164 78.9112 1.63636 74.6159 1.63636 69.8182H-0.363636C-0.363636 75.081 1.32321 79.8161 4.67483 83.9898L6.23426 82.7375ZM1.63636 69.8182C1.63636 66.1377 2.51809 62.7805 4.27582 59.7261L2.54236 58.7285C0.603126 62.0983 -0.363636 65.8017 -0.363636 69.8182H1.63636ZM4.27582 59.7261C6.04618 56.6497 8.43937 54.095 11.4675 52.0569L10.3507 50.3977C7.07578 52.602 4.46897 55.3806 2.54236 58.7285L4.27582 59.7261ZM11.4692 52.0557C14.5252 49.9893 17.9309 48.6633 21.6987 48.0791L21.3922 46.1027C17.3419 46.7307 13.6567 48.1622 10.3489 50.3989L11.4692 52.0557ZM22.5455 47.0909V46.3636H20.5455V47.0909H22.5455ZM21.7259 45.38C16.8214 44.4804 12.8318 42.2141 9.7138 38.5765L8.19529 39.8781C11.6227 43.8768 16.0271 46.3681 21.365 47.3472L21.7259 45.38ZM9.71678 38.58C6.63157 34.9469 5.09091 30.7081 5.09091 25.8182H3.09091C3.09091 31.1707 4.79267 35.8713 8.19231 39.8746L9.71678 38.58ZM5.09091 25.8182C5.09091 21.189 6.48839 17.0871 9.29003 13.4767L7.70997 12.2506C4.63283 16.216 3.09091 20.7504 3.09091 25.8182H5.09091ZM9.28697 13.4806C12.1374 9.8449 16.0377 6.95524 21.0283 4.82908L20.2444 2.9891C14.9926 5.22657 10.802 8.30661 7.71303 12.2466L9.28697 13.4806ZM21.0264 4.82991C26.0348 2.70868 31.7623 1.63636 38.2273 1.63636V-0.36364C31.5407 -0.36364 25.5409 0.745862 20.2464 2.98827L21.0264 4.82991ZM38.2273 1.63636C44.6924 1.63636 50.4039 2.70873 55.3808 4.82908L56.1647 2.9891C50.8992 0.745813 44.9137 -0.36364 38.2273 -0.36364V1.63636ZM55.3827 4.82991C60.4032 6.95624 64.3008 9.84494 67.1191 13.4767L68.6991 12.2506C65.6386 8.30657 61.4452 5.22558 56.1627 2.98827L55.3827 4.82991ZM67.1221 13.4806C69.9527 17.0911 71.3636 21.1916 71.3636 25.8182H73.3636C73.3636 20.7478 71.8049 16.212 68.6961 12.2466L67.1221 13.4806ZM71.3636 25.8182C71.3636 30.7348 69.7952 34.986 66.6528 38.6185L68.1654 39.927C71.6291 35.923 73.3636 31.2046 73.3636 25.8182H71.3636ZM66.6524 38.6189C63.5326 42.2298 59.5708 44.4812 54.7266 45.3804L55.0916 47.3468C60.3686 46.3673 64.7401 43.8914 68.1658 39.9265L66.6524 38.6189ZM53.9091 46.3636V47.0909H55.9091V46.3636H53.9091ZM54.7547 48.0789C58.491 48.6627 61.8655 49.9879 64.8907 52.0532L66.0184 50.4014C62.7405 48.1636 59.0847 46.7312 55.0635 46.1029L54.7547 48.0789ZM64.8998 52.0593C67.9576 54.0978 70.3642 56.6519 72.1333 59.7261L73.8667 58.7285C71.9388 55.3784 69.3152 52.5992 66.0092 50.3952L64.8998 52.0593ZM72.1368 59.7322C73.9229 62.7857 74.8182 66.1408 74.8182 69.8182H76.8182C76.8182 65.7986 75.8347 62.0931 73.8632 58.7224L72.1368 59.7322ZM74.8182 69.8182C74.8182 74.6134 73.2795 78.9075 70.1777 82.7339L71.7314 83.9933C75.1145 79.8198 76.8182 75.0836 76.8182 69.8182H74.8182ZM70.1801 82.731C67.0613 86.5493 62.7533 89.611 57.2102 91.8935L57.9717 93.7429C63.7619 91.3587 68.3629 88.1174 71.729 83.9962L70.1801 82.731ZM57.2127 91.8925C51.7173 94.1379 45.395 95.2727 38.2273 95.2727V97.2727C45.605 97.2727 52.1918 96.1045 57.9692 93.7439L57.2127 91.8925ZM38.2273 81.3182C41.1103 81.3182 43.6906 80.7791 45.942 79.6697L45.058 77.8757C43.1276 78.8269 40.8594 79.3182 38.2273 79.3182V81.3182ZM45.9524 79.6646C48.1953 78.5268 49.9718 76.9369 51.2556 74.8961L49.5626 73.8312C48.4827 75.548 46.9865 76.8974 45.0476 77.8809L45.9524 79.6646ZM51.2494 74.9058C52.5718 72.856 53.2273 70.5444 53.2273 68H51.2273C51.2273 70.1829 50.6706 72.1137 49.5688 73.8215L51.2494 74.9058ZM53.2273 68C53.2273 65.4003 52.5746 63.0573 51.2494 61.0033L49.5688 62.0876C50.6679 63.7911 51.2273 65.7512 51.2273 68H53.2273ZM51.2494 61.0033C49.9342 58.9648 48.1276 57.3776 45.8563 56.2419L44.9619 58.0308C46.933 59.0163 48.4597 60.3685 49.5688 62.0876L51.2494 61.0033ZM45.8717 56.2498C43.6186 55.0743 41.062 54.5 38.2273 54.5V56.5C40.7865 56.5 43.0177 57.0166 44.9465 58.0229L45.8717 56.2498ZM38.2273 54.5C35.4205 54.5 32.8668 55.0752 30.5881 56.2471L31.5028 58.0257C33.4666 57.0157 35.7007 56.5 38.2273 56.5V54.5ZM30.5982 56.2419C28.3269 57.3776 26.5203 58.9648 25.2052 61.0033L26.8858 62.0876C27.9948 60.3685 29.5216 59.0163 31.4927 58.0308L30.5982 56.2419ZM25.2052 61.0033C23.88 63.0573 23.2273 65.4003 23.2273 68H25.2273C25.2273 65.7512 25.7867 63.7911 26.8858 62.0876L25.2052 61.0033ZM23.2273 68C23.2273 70.5393 23.8648 72.8473 25.1535 74.8961L26.8465 73.8312C25.7716 72.1224 25.2273 70.188 25.2273 68H23.2273ZM25.1638 74.912C26.4775 76.9154 28.2653 78.4845 30.5022 79.6191L31.4069 77.8354C29.462 76.8489 27.9468 75.5088 26.8362 73.8153L25.1638 74.912ZM30.5073 79.6217C32.7869 80.7615 35.3681 81.3182 38.2273 81.3182V79.3182C35.6319 79.3182 33.3646 78.8143 31.4018 77.8328L30.5073 79.6217ZM38.2273 40.6364C40.7307 40.6364 42.9875 40.1218 44.9706 39.0642L44.0294 37.2995C42.3761 38.1812 40.4511 38.6364 38.2273 38.6364V40.6364ZM44.9645 39.0674C46.9699 38.0154 48.5485 36.5405 49.677 34.6486L47.9594 33.6241C47.0272 35.1868 45.7271 36.4088 44.0355 37.2963L44.9645 39.0674ZM49.6704 34.6596C50.835 32.7629 51.4091 30.6246 51.4091 28.2727H49.4091C49.4091 30.2845 48.9226 32.0553 47.966 33.6131L49.6704 34.6596ZM51.4091 28.2727C51.4091 25.9213 50.8351 23.8068 49.6618 21.9631L47.9745 23.0369C48.9225 24.5266 49.4091 26.2605 49.4091 28.2727H51.4091ZM49.6688 21.9742C48.5389 20.1464 46.9761 18.7212 45.0045 17.7025L44.0864 19.4793C45.7511 20.3394 47.0369 21.5203 47.9676 23.0258L49.6688 21.9742ZM45.016 17.7086C43.0312 16.65 40.7587 16.1364 38.2273 16.1364V18.1364C40.4837 18.1364 42.4234 18.5924 44.0749 19.4733L45.016 17.7086ZM38.2273 16.1364C35.7235 16.1364 33.4544 16.651 31.4445 17.7054L32.3736 19.4765C34.0608 18.5914 36.0038 18.1364 38.2273 18.1364V16.1364ZM31.456 17.6994C29.4539 18.7169 27.8728 20.1423 26.7403 21.9742L28.4415 23.0258C29.3696 21.5244 30.6673 20.3437 32.3621 19.4824L31.456 17.6994ZM26.7403 21.9742C25.6015 23.8163 25.0455 25.9269 25.0455 28.2727H27.0455C27.0455 26.2549 27.5197 24.517 28.4415 23.0258L26.7403 21.9742ZM25.0455 28.2727C25.0455 30.6191 25.6016 32.7534 26.7321 34.6486L28.4497 33.6241C27.5196 32.0648 27.0455 30.29 27.0455 28.2727H25.0455ZM26.7429 34.6664C27.8999 36.5176 29.486 37.9833 31.4787 39.0614L32.4304 37.3023C30.7262 36.3803 29.4031 35.1491 28.4389 33.6064L26.7429 34.6664ZM31.49 39.0674C33.498 40.1207 35.7515 40.6364 38.2273 40.6364V38.6364C36.0364 38.6364 34.1081 38.1823 32.4191 37.2963L31.49 39.0674Z" fill="#8A8484"/>
</svg>
