<svg width="76" height="97" viewBox="0 0 76 97" fill="none" xmlns="http://www.w3.org/2000/svg">
<path d="M36.9091 0.63636C42 0.63636 46.8636 1.46969 51.5 3.13636C56.1364 4.77272 60.2727 7.39394 63.9091 11C67.5455 14.5758 70.4091 19.2879 72.5 25.1364C74.5909 30.9848 75.6364 38.1212 75.6364 46.5455C75.6667 54.303 74.7576 61.2576 72.9091 67.4091C71.0606 73.5303 68.4091 78.7424 64.9545 83.0455C61.5303 87.3485 57.4091 90.6364 52.5909 92.9091C47.7727 95.1515 42.3939 96.2727 36.4545 96.2727C29.9091 96.2727 24.1364 95.0152 19.1364 92.5C14.1667 89.9545 10.1818 86.5303 7.18182 82.2273C4.21212 77.9242 2.43939 73.1061 1.86364 67.7727H24C24.697 70.8636 26.1667 73.197 28.4091 74.7727C30.6515 76.3182 33.3333 77.0909 36.4545 77.0909C42.1515 77.0909 46.4091 74.6212 49.2273 69.6818C52.0455 64.7424 53.4545 58.0303 53.4545 49.5455H52.9091C51.6061 52.3333 49.7576 54.7273 47.3636 56.7273C45 58.7273 42.2576 60.2576 39.1364 61.3182C36.0152 62.3788 32.7273 62.9091 29.2727 62.9091C23.697 62.9091 18.7727 61.6364 14.5 59.0909C10.2576 56.5455 6.92424 53.0455 4.5 48.5909C2.10606 44.1364 0.893939 39.0455 0.863636 33.3182C0.833333 26.8939 2.33333 21.2273 5.36364 16.3182C8.39394 11.3788 12.6212 7.5303 18.0455 4.77273C23.4697 1.98485 29.7576 0.606056 36.9091 0.63636ZM37.0455 17.9091C34.2576 17.9091 31.7727 18.5606 29.5909 19.8636C27.4394 21.1667 25.7424 22.9242 24.5 25.1364C23.2576 27.3485 22.6515 29.8333 22.6818 32.5909C22.7121 35.3485 23.3333 37.8333 24.5455 40.0455C25.7879 42.2576 27.4697 44.0152 29.5909 45.3182C31.7424 46.6212 34.197 47.2727 36.9545 47.2727C39.0152 47.2727 40.9242 46.8939 42.6818 46.1364C44.4394 45.3788 45.9697 44.3333 47.2727 43C48.5758 41.6364 49.5909 40.0606 50.3182 38.2727C51.0758 36.4848 51.4394 34.5758 51.4091 32.5455C51.3788 29.8485 50.7424 27.3939 49.5 25.1818C48.2576 22.9697 46.5455 21.2121 44.3636 19.9091C42.2121 18.5758 39.7727 17.9091 37.0455 17.9091Z" fill="black"/>
<path d="M36.9091 0.63636L36.9049 1.63636H36.9091V0.63636ZM51.5 3.13636L51.1617 4.07742L51.1672 4.07935L51.5 3.13636ZM63.9091 11L63.2049 11.7101L63.208 11.713L63.9091 11ZM72.5 25.1364L71.5584 25.473L71.5584 25.473L72.5 25.1364ZM75.6364 46.5455H74.6364L74.6364 46.5494L75.6364 46.5455ZM72.9091 67.4091L73.8664 67.6982L73.8668 67.6969L72.9091 67.4091ZM64.9545 83.0455L64.1747 82.4194L64.1721 82.4228L64.9545 83.0455ZM52.5909 92.9091L53.0129 93.8157L53.0175 93.8135L52.5909 92.9091ZM19.1364 92.5L18.6805 93.3901L18.687 93.3933L19.1364 92.5ZM7.18182 82.2273L6.35878 82.7953L6.3615 82.7992L7.18182 82.2273ZM1.86364 67.7727V66.7727H0.749872L0.869413 67.8801L1.86364 67.7727ZM24 67.7727L24.9755 67.5528L24.7996 66.7727H24V67.7727ZM28.4091 74.7727L27.8341 75.591L27.8416 75.5961L28.4091 74.7727ZM49.2273 69.6818L50.0958 70.1774L50.0958 70.1774L49.2273 69.6818ZM53.4545 49.5455H54.4545V48.5455H53.4545V49.5455ZM52.9091 49.5455V48.5455H52.2726L52.0032 49.122L52.9091 49.5455ZM47.3636 56.7273L46.7225 55.9598L46.7177 55.9639L47.3636 56.7273ZM39.1364 61.3182L38.8146 60.3714L38.8146 60.3714L39.1364 61.3182ZM14.5 59.0909L13.9855 59.9484L13.9882 59.95L14.5 59.0909ZM4.5 48.5909L3.61913 49.0643L3.62165 49.0689L4.5 48.5909ZM0.863636 33.3182L-0.136353 33.3229L-0.13635 33.3235L0.863636 33.3182ZM5.36364 16.3182L6.21458 16.8434L6.21601 16.8411L5.36364 16.3182ZM18.0455 4.77273L18.4986 5.66416L18.5026 5.66213L18.0455 4.77273ZM29.5909 19.8636L29.0782 19.0051L29.0729 19.0083L29.5909 19.8636ZM24.5 25.1364L23.6281 24.6467L23.6281 24.6467L24.5 25.1364ZM22.6818 32.5909L23.6818 32.5799L23.6818 32.5799L22.6818 32.5909ZM24.5455 40.0455L23.6684 40.526L23.6736 40.5351L24.5455 40.0455ZM29.5909 45.3182L29.0675 46.1703L29.0729 46.1735L29.5909 45.3182ZM42.6818 46.1364L43.0776 47.0547L43.0776 47.0547L42.6818 46.1364ZM47.2727 43L47.988 43.699L47.9957 43.6909L47.2727 43ZM50.3182 38.2727L49.3974 37.8826L49.3946 37.8892L49.3919 37.8959L50.3182 38.2727ZM51.4091 32.5455L50.4091 32.5567L50.4092 32.5604L51.4091 32.5455ZM49.5 25.1818L48.6281 25.6715L48.6281 25.6715L49.5 25.1818ZM44.3636 19.9091L43.8369 20.7591L43.8438 20.7634L43.8509 20.7676L44.3636 19.9091ZM36.9091 1.63636C41.8886 1.63636 46.6375 2.45104 51.1617 4.0774L51.8383 2.19532C47.0898 0.488343 42.1114 -0.36364 36.9091 -0.36364V1.63636ZM51.1672 4.07935C55.6582 5.66443 59.6691 8.2037 63.205 11.7101L64.6132 10.2899C60.8763 6.58418 56.6145 3.88102 51.8328 2.19337L51.1672 4.07935ZM63.208 11.713C66.7159 15.1625 69.5074 19.7361 71.5584 25.473L73.4416 24.7997C71.3108 18.8396 68.375 13.989 64.6102 10.287L63.208 11.713ZM71.5584 25.473C73.5996 31.1826 74.6364 38.1978 74.6364 46.5455H76.6364C76.6364 38.0446 75.5822 30.7871 73.4416 24.7997L71.5584 25.473ZM74.6364 46.5494C74.6664 54.2279 73.7663 61.0816 71.9514 67.1213L73.8668 67.6969C75.7489 61.4335 76.667 54.3781 76.6364 46.5415L74.6364 46.5494ZM71.9518 67.12C70.1345 73.1378 67.5374 78.2308 64.1747 82.4194L65.7343 83.6715C69.2808 79.254 71.9867 73.9228 73.8664 67.6982L71.9518 67.12ZM64.1721 82.4228C60.8401 86.6099 56.8393 89.7995 52.1643 92.0047L53.0175 93.8135C57.9789 91.4733 62.2205 88.0871 65.737 83.6681L64.1721 82.4228ZM52.169 92.0025C47.4977 94.1765 42.2654 95.2727 36.4545 95.2727V97.2727C42.5225 97.2727 48.0477 96.1265 53.0129 93.8157L52.169 92.0025ZM36.4545 95.2727C30.0388 95.2727 24.4245 94.0407 19.5857 91.6067L18.687 93.3933C23.8482 95.9896 29.7794 97.2727 36.4545 97.2727V95.2727ZM19.5922 91.61C14.7586 89.1342 10.9025 85.8155 8.00214 81.6554L6.3615 82.7992C9.46114 87.2451 13.5748 90.7749 18.6805 93.39L19.5922 91.61ZM8.00484 81.6593C5.13217 77.4968 3.41624 72.8378 2.85786 67.6654L0.869413 67.8801C1.46254 73.3743 3.29207 78.3517 6.35879 82.7953L8.00484 81.6593ZM1.86364 68.7727H24V66.7727H1.86364V68.7727ZM23.0245 67.9927C23.767 71.2855 25.3571 73.8503 27.8341 75.5909L28.984 73.9545C26.9762 72.5437 25.627 70.4418 24.9755 67.5528L23.0245 67.9927ZM27.8416 75.5961C30.2745 77.2728 33.1612 78.0909 36.4545 78.0909V76.0909C33.5054 76.0909 31.0286 75.3636 28.9766 73.9493L27.8416 75.5961ZM36.4545 78.0909C42.5098 78.0909 47.0993 75.4294 50.0958 70.1774L48.3587 69.1863C45.7189 73.8131 41.7932 76.0909 36.4545 76.0909V78.0909ZM50.0958 70.1774C53.0324 65.0306 54.4545 58.1249 54.4545 49.5455H52.4545C52.4545 57.9357 51.0585 64.4543 48.3587 69.1863L50.0958 70.1774ZM53.4545 48.5455H52.9091V50.5455H53.4545V48.5455ZM52.0032 49.122C50.763 51.7754 49.0056 54.0524 46.7225 55.9598L48.0048 57.4947C50.5095 55.4021 52.4491 52.8913 53.815 49.9689L52.0032 49.122ZM46.7177 55.9639C44.4557 57.8778 41.825 59.3484 38.8146 60.3714L39.4581 62.265C42.6902 61.1667 45.5443 59.5767 48.0096 57.4907L46.7177 55.9639ZM38.8146 60.3714C35.8019 61.3951 32.6231 61.9091 29.2727 61.9091V63.9091C32.8314 63.9091 36.2284 63.3625 39.4581 62.265L38.8146 60.3714ZM29.2727 61.9091C23.8548 61.9091 19.1116 60.6742 15.0118 58.2318L13.9882 59.95C18.4339 62.5985 23.5391 63.9091 29.2727 63.9091V61.9091ZM15.0145 58.2334C10.929 55.7821 7.71957 52.4149 5.37835 48.1129L3.62165 49.0689C6.12892 53.676 9.58615 57.3088 13.9855 59.9484L15.0145 58.2334ZM5.38086 48.1175C3.07403 43.8251 1.89318 38.8987 1.86362 33.3129L-0.13635 33.3235C-0.105298 39.1923 1.1381 44.4477 3.61914 49.0643L5.38086 48.1175ZM1.86363 33.3135C1.8341 27.0544 3.29347 21.5756 6.21457 16.8434L4.5127 15.7929C1.3732 20.8789 -0.167435 26.7334 -0.136352 33.3229L1.86363 33.3135ZM6.21601 16.8411C9.14487 12.0671 13.2303 8.34246 18.4986 5.66415L17.5923 3.88131C12.0121 6.71814 7.64301 10.6905 4.51126 15.7952L6.21601 16.8411ZM18.5026 5.66213C23.7614 2.95927 29.8861 1.60661 36.9049 1.63635L36.9133 -0.363631C29.6291 -0.394497 23.178 1.01042 17.5883 3.88332L18.5026 5.66213ZM37.0455 16.9091C34.0951 16.9091 31.4298 17.6006 29.0782 19.0051L30.1037 20.7222C32.1157 19.5206 34.4201 18.9091 37.0455 18.9091V16.9091ZM29.0729 19.0083C26.7725 20.4014 24.9542 22.2855 23.6281 24.6467L25.3719 25.6261C26.5306 23.5629 28.1063 21.9319 30.1089 20.719L29.0729 19.0083ZM23.6281 24.6467C22.2925 27.0247 21.6498 29.6848 21.6819 32.6019L23.6818 32.5799C23.6532 29.9819 24.2227 27.6723 25.3719 25.6261L23.6281 24.6467ZM21.6819 32.6019C21.7138 35.508 22.3702 38.1567 23.6685 40.526L25.4224 39.5649C24.2964 37.51 23.7104 35.1889 23.6818 32.5799L21.6819 32.6019ZM23.6736 40.5351C24.9977 42.8928 26.7983 44.7763 29.0675 46.1703L30.1143 44.4661C28.1411 43.254 26.578 41.6224 25.4174 39.5558L23.6736 40.5351ZM29.0729 46.1735C31.3955 47.5802 34.0325 48.2727 36.9545 48.2727V46.2727C34.3615 46.2727 32.0894 45.6622 30.1089 44.4628L29.0729 46.1735ZM36.9545 48.2727C39.1407 48.2727 41.1857 47.8702 43.0776 47.0547L42.286 45.218C40.6628 45.9177 38.8896 46.2727 36.9545 46.2727V48.2727ZM43.0776 47.0547C44.9517 46.2469 46.5913 45.128 47.9879 43.6989L46.5575 42.3011C45.3481 43.5386 43.9271 44.5107 42.286 45.218L43.0776 47.0547ZM47.9957 43.6909C49.3877 42.2341 50.4709 40.5512 51.2445 38.6495L49.3919 37.8959C48.7109 39.57 47.7638 41.0386 46.5497 42.3091L47.9957 43.6909ZM51.2389 38.6629C52.0532 36.7411 52.4413 34.6934 52.409 32.5305L50.4092 32.5604C50.4375 34.4581 50.0983 36.2286 49.3974 37.8826L51.2389 38.6629ZM52.409 32.5342C52.377 29.6805 51.7016 27.0597 50.3719 24.6921L48.6281 25.6715C49.7832 27.7282 50.3806 30.0165 50.4092 32.5567L52.409 32.5342ZM50.3719 24.6921C49.0438 22.3275 47.2078 20.4429 44.8764 19.0505L43.8509 20.7676C45.8831 21.9813 47.4713 23.6118 48.6281 25.6715L50.3719 24.6921ZM44.8904 19.0591C42.5684 17.6201 39.9439 16.9091 37.0455 16.9091V18.9091C39.6016 18.9091 41.8558 19.5314 43.8369 20.7591L44.8904 19.0591Z" fill="#8A8484"/>
</svg>
