<svg width="133" height="99" viewBox="0 0 133 99" fill="none" xmlns="http://www.w3.org/2000/svg">
<mask id="path-1-outside-1_9_12" maskUnits="userSpaceOnUse" x="0" y="0" width="133" height="99" fill="black">
<rect fill="white" width="133" height="99"/>
<path fill-rule="evenodd" clip-rule="evenodd" d="M71.2727 91.8636C77.1515 95.7121 84.1515 97.6364 92.2727 97.6364C100.424 97.6364 107.424 95.7273 113.273 91.9091C119.152 88.0606 123.682 82.5 126.864 75.2273C130.045 67.9546 131.636 59.197 131.636 48.9545C131.667 38.7727 130.091 30.1061 126.909 22.9545C123.727 15.803 119.182 10.3636 113.273 6.63637C107.394 2.87879 100.394 1 92.2727 1C84.1515 1 77.1515 2.87879 71.2727 6.63637C65.4242 10.3636 60.9091 15.803 57.7273 22.9545C54.5758 30.0758 52.9848 38.7424 52.9545 48.9545C52.9242 59.1667 54.5 67.9091 57.6818 75.1818C60.8636 82.4242 65.3939 87.9849 71.2727 91.8636ZM104.045 71.8182C101.045 76.7576 97.1212 79.2273 92.2727 79.2273C89.0606 79.2273 86.2273 78.1364 83.7727 75.9546C81.3182 73.7424 79.4091 70.3939 78.0455 65.9091C76.7121 61.4242 76.0606 55.7727 76.0909 48.9545C76.1212 38.8939 77.6212 31.4394 80.5909 26.5909C83.5606 21.7121 87.4545 19.2727 92.2727 19.2727C95.5152 19.2727 98.3485 20.3485 100.773 22.5C103.197 24.6515 105.091 27.9242 106.455 32.3182C107.818 36.6818 108.5 42.2273 108.5 48.9545C108.53 59.2273 107.045 66.8485 104.045 71.8182ZM44.8182 95.3636V2.27273H23.9545L1 16.5455V36L21.8182 23.2727H22.3636V95.3636H44.8182Z"/>
</mask>
<path fill-rule="evenodd" clip-rule="evenodd" d="M71.2727 91.8636C77.1515 95.7121 84.1515 97.6364 92.2727 97.6364C100.424 97.6364 107.424 95.7273 113.273 91.9091C119.152 88.0606 123.682 82.5 126.864 75.2273C130.045 67.9546 131.636 59.197 131.636 48.9545C131.667 38.7727 130.091 30.1061 126.909 22.9545C123.727 15.803 119.182 10.3636 113.273 6.63637C107.394 2.87879 100.394 1 92.2727 1C84.1515 1 77.1515 2.87879 71.2727 6.63637C65.4242 10.3636 60.9091 15.803 57.7273 22.9545C54.5758 30.0758 52.9848 38.7424 52.9545 48.9545C52.9242 59.1667 54.5 67.9091 57.6818 75.1818C60.8636 82.4242 65.3939 87.9849 71.2727 91.8636ZM104.045 71.8182C101.045 76.7576 97.1212 79.2273 92.2727 79.2273C89.0606 79.2273 86.2273 78.1364 83.7727 75.9546C81.3182 73.7424 79.4091 70.3939 78.0455 65.9091C76.7121 61.4242 76.0606 55.7727 76.0909 48.9545C76.1212 38.8939 77.6212 31.4394 80.5909 26.5909C83.5606 21.7121 87.4545 19.2727 92.2727 19.2727C95.5152 19.2727 98.3485 20.3485 100.773 22.5C103.197 24.6515 105.091 27.9242 106.455 32.3182C107.818 36.6818 108.5 42.2273 108.5 48.9545C108.53 59.2273 107.045 66.8485 104.045 71.8182ZM44.8182 95.3636V2.27273H23.9545L1 16.5455V36L21.8182 23.2727H22.3636V95.3636H44.8182Z" fill="black"/>
<path d="M71.2727 91.8636L70.722 92.6983L70.725 92.7003L71.2727 91.8636ZM113.273 91.9091L113.819 92.7464L113.82 92.7458L113.273 91.9091ZM126.864 75.2273L125.947 74.8265L125.947 74.8265L126.864 75.2273ZM131.636 48.9545L130.636 48.9516V48.9545H131.636ZM126.909 22.9545L125.995 23.361L125.995 23.361L126.909 22.9545ZM113.273 6.63637L112.734 7.47897L112.739 7.48217L113.273 6.63637ZM71.2727 6.63637L71.8102 7.47967L71.8113 7.47895L71.2727 6.63637ZM57.7273 22.9545L56.8136 22.548L56.8128 22.5499L57.7273 22.9545ZM52.9545 48.9545L53.9545 48.9575L53.9545 48.9575L52.9545 48.9545ZM57.6818 75.1818L56.7657 75.5826L56.7663 75.584L57.6818 75.1818ZM104.045 71.8182L104.9 72.3373L104.902 72.335L104.045 71.8182ZM83.7727 75.9546L83.1032 76.6974L83.1084 76.702L83.7727 75.9546ZM78.0455 65.9091L77.0869 66.1941L77.0887 66.2L78.0455 65.9091ZM76.0909 48.9545L77.0909 48.959L77.0909 48.9576L76.0909 48.9545ZM80.5909 26.5909L81.4437 27.1132L81.4451 27.1109L80.5909 26.5909ZM106.455 32.3182L105.499 32.6146L105.5 32.6165L106.455 32.3182ZM108.5 48.9545L107.5 48.9545L107.5 48.9575L108.5 48.9545ZM44.8182 2.27273H45.8182V1.27273H44.8182V2.27273ZM44.8182 95.3636V96.3636H45.8182V95.3636H44.8182ZM23.9545 2.27273V1.27273H23.669L23.4265 1.4235L23.9545 2.27273ZM1 16.5455L0.471968 15.6962L0 15.9897V16.5455H1ZM1 36H0V37.7834L1.5216 36.8532L1 36ZM21.8182 23.2727V22.2727H21.5367L21.2966 22.4195L21.8182 23.2727ZM22.3636 23.2727H23.3636V22.2727H22.3636V23.2727ZM22.3636 95.3636H21.3636V96.3636H22.3636V95.3636ZM92.2727 96.6364C84.315 96.6364 77.5123 94.7531 71.8204 91.027L70.725 92.7003C76.7908 96.6712 83.988 98.6364 92.2727 98.6364V96.6364ZM112.726 91.0717C107.066 94.767 100.263 96.6364 92.2727 96.6364V98.6364C100.585 98.6364 107.783 96.6875 113.819 92.7464L112.726 91.0717ZM125.947 74.8265C122.833 81.945 118.421 87.3438 112.725 91.0724L113.82 92.7458C119.882 88.7775 124.531 83.055 127.78 75.6281L125.947 74.8265ZM130.636 48.9545C130.636 59.0974 129.06 67.7111 125.947 74.8265L127.78 75.6281C131.03 68.198 132.636 59.2965 132.636 48.9545H130.636ZM125.995 23.361C129.105 30.3511 130.666 38.8702 130.636 48.9516L132.636 48.9575C132.667 38.6753 131.076 29.861 127.823 22.548L125.995 23.361ZM112.739 7.48217C118.461 11.0914 122.884 16.3678 125.995 23.361L127.823 22.548C124.571 15.2383 119.902 9.63587 113.806 5.79057L112.739 7.48217ZM92.2727 2C100.235 2 107.041 3.84011 112.734 7.47895L113.811 5.79378C107.747 1.91747 100.553 0 92.2727 0V2ZM71.8113 7.47895C77.5043 3.84011 84.3105 2 92.2727 2V0C83.9926 0 76.7987 1.91747 70.7342 5.79378L71.8113 7.47895ZM58.6409 23.361C61.7535 16.3651 66.148 11.0882 71.8102 7.47967L70.7353 5.79307C64.7005 9.63905 60.0646 15.241 56.8136 22.548L58.6409 23.361ZM53.9545 48.9575C53.9846 38.8427 55.5607 30.3211 58.6417 23.3592L56.8128 22.5499C53.5908 29.8304 51.9851 38.6422 51.9546 48.9516L53.9545 48.9575ZM58.598 74.781C55.4854 67.6665 53.9245 59.0689 53.9545 48.9575L51.9546 48.9516C51.9239 59.2644 53.5146 68.1517 56.7657 75.5826L58.598 74.781ZM71.8235 91.029C66.1246 87.2689 61.7116 81.8682 58.5974 74.7796L56.7663 75.584C60.0157 82.9803 64.6632 88.7008 70.722 92.6983L71.8235 91.029ZM92.2727 80.2273C97.5425 80.2273 101.76 77.5081 104.9 72.3373L103.191 71.2991C100.331 76.007 96.6999 78.2273 92.2727 78.2273V80.2273ZM83.1084 76.702C85.7414 79.0425 88.8097 80.2273 92.2727 80.2273V78.2273C89.3115 78.2273 86.7131 77.2303 84.4371 75.2071L83.1084 76.702ZM77.0887 66.2C78.4842 70.7897 80.4685 74.3229 83.1033 76.6974L84.4422 75.2117C82.1678 73.162 80.334 69.9982 79.0022 65.6182L77.0887 66.2ZM75.0909 48.9501C75.0604 55.8258 75.7161 61.5831 77.0869 66.1941L79.004 65.6241C77.7082 61.2654 77.0609 55.7197 77.0909 48.959L75.0909 48.9501ZM79.7382 26.0686C76.6243 31.1524 75.1214 38.83 75.0909 48.9515L77.0909 48.9576C77.121 38.9579 78.6181 31.7264 81.4437 27.1132L79.7382 26.0686ZM92.2727 18.2727C87.0358 18.2727 82.8484 20.9589 79.7367 26.071L81.4451 27.1109C84.2728 22.4653 87.8733 20.2727 92.2727 20.2727V18.2727ZM101.437 21.7521C98.8292 19.4381 95.7597 18.2727 92.2727 18.2727V20.2727C95.2706 20.2727 97.8678 21.2589 100.109 23.2479L101.437 21.7521ZM107.41 32.0218C106.013 27.523 104.043 24.0652 101.437 21.7521L100.109 23.2479C102.351 25.2378 104.168 28.3255 105.499 32.6146L107.41 32.0218ZM109.5 48.9545C109.5 42.1691 108.813 36.514 107.409 32.0199L105.5 32.6165C106.823 36.8497 107.5 42.2854 107.5 48.9545H109.5ZM104.902 72.335C108.044 67.1293 109.53 59.2852 109.5 48.9516L107.5 48.9575C107.53 59.1694 106.047 66.5677 103.189 71.3014L104.902 72.335ZM43.8182 2.27273V95.3636H45.8182V2.27273H43.8182ZM23.9545 3.27273H44.8182V1.27273H23.9545V3.27273ZM1.52803 17.3947L24.4826 3.12195L23.4265 1.4235L0.471968 15.6962L1.52803 17.3947ZM2 36V16.5455H0V36H2ZM21.2966 22.4195L0.478399 35.1468L1.5216 36.8532L22.3398 24.1259L21.2966 22.4195ZM22.3636 22.2727H21.8182V24.2727H22.3636V22.2727ZM23.3636 95.3636V23.2727H21.3636V95.3636H23.3636ZM44.8182 94.3636H22.3636V96.3636H44.8182V94.3636Z" fill="#8A8484" mask="url(#path-1-outside-1_9_12)"/>
</svg>
